D:\school\WTK\thesis\model\3dpredictsim\Results\Batchsim_tmt_linear_v2\Pog_s1_tmt_aCst_d00_k1000_ig24_act_GRF.mot
nRows=27
nColumns=19

name D:\school\WTK\thesis\model\3dpredictsim\Results\Batchsim_tmt_linear_v2\Pog_s1_tmt_aCst_d00_k1000_ig24_act_GRF.mot
datacolumns 19
datarows 27
range 0.6308086937 0.9588292145
endheader
time 	ground_force_vx	ground_force_vy	ground_force_vz	ground_force_px	ground_force_py	ground_force_pz	1_ground_force_vx	1_ground_force_vy	1_ground_force_vz	1_ground_force_px	1_ground_force_py	1_ground_force_pz	ground_torque_x	ground_torque_y	ground_torque_z	1_ground_torque_x	1_ground_torque_y	1_ground_torque_z
        0.6308086937	       61.2650222979	      291.4065302947	        8.8242098570	        0.4145130392	        0.0000000000	        0.0419878681	      -89.6582863789	       73.1980914422	      -17.3041346783	        1.1702035275	        0.0000000000	       -0.0291916360	        0.0000000000	        0.0000000000	        0.0000000000	        0.0000000000	        0.0000000000	        0.0000000000	
        0.6434248676	       35.8630743329	      230.5545459527	       11.3397305581	        0.4324655810	        0.0000000000	        0.0399437141	     -177.7486899640	      169.8092013667	      -30.7880140324	        1.1538989473	        0.0000000000	       -0.0354381525	        0.0000000000	        0.0000000000	        0.0000000000	        0.0000000000	        0.0000000000	        0.0000000000	
        0.6560410415	       37.5859825897	      195.7547094966	       16.7961909679	        0.4328770446	        0.0000000000	        0.0402896724	     -198.8659917916	      451.6518438817	       -8.5458021645	        1.1170663877	        0.0000000000	       -0.0469685779	        0.0000000000	        0.0000000000	        0.0000000000	        0.0000000000	        0.0000000000	        0.0000000000	
        0.6686572153	       35.3045307326	      150.1334922882	       19.2740836861	        0.4334302262	        0.0000000000	        0.0405543839	     -209.9599303335	      637.7571294705	        2.8763640241	        1.1011447960	        0.0000000000	       -0.0511570046	        0.0000000000	        0.0000000000	        0.0000000000	        0.0000000000	        0.0000000000	        0.0000000000	
        0.6812733892	       27.0569264057	       95.5704015338	       18.4826606603	        0.4340244409	        0.0000000000	        0.0408700599	     -197.6744025758	      772.1041401683	        5.4857197629	        1.0924681715	        0.0000000000	       -0.0534129079	        0.0000000000	        0.0000000000	        0.0000000000	        0.0000000000	        0.0000000000	        0.0000000000	
        0.6938895631	        6.4724751322	       34.2189023817	        8.5845321006	        0.4334774697	        0.0000000000	        0.0408051162	     -201.8706921900	      876.9782973725	        9.1933363955	        1.0874016868	        0.0000000000	       -0.0547217459	        0.0000000000	        0.0000000000	        0.0000000000	        0.0000000000	        0.0000000000	        0.0000000000	
        0.7065057370	        0.2676000359	       -0.2666346272	       -0.0186320098	        0.0000000000	        0.0000000000	        0.0000000000	     -196.0724270239	      899.1709058527	       11.3839849621	        1.0842164319	        0.0000000000	       -0.0554115686	        0.0000000000	        0.0000000000	        0.0000000000	        0.0000000000	        0.0000000000	        0.0000000000	
        0.7191219108	        0.2873689762	       -0.2178618410	        0.0124775392	        0.0000000000	        0.0000000000	        0.0000000000	     -177.0270115427	      872.5407999711	       11.7524160665	        1.0823649715	        0.0000000000	       -0.0558289670	        0.0000000000	        0.0000000000	        0.0000000000	        0.0000000000	        0.0000000000	        0.0000000000	
        0.7317380847	       -5.0763244300	        3.2430223550	       -0.3093024437	        0.0000000000	        0.0000000000	        0.0000000000	     -155.5890309235	      816.4149818509	       11.8048575074	        1.0823215573	        0.0000000000	       -0.0561755793	        0.0000000000	        0.0000000000	        0.0000000000	        0.0000000000	        0.0000000000	        0.0000000000	
        0.7443542586	       -5.5495903097	        3.1309851734	       -0.3642176727	        0.0000000000	        0.0000000000	        0.0000000000	     -137.7697443056	      764.6247235392	       12.8311633296	        1.0833697360	        0.0000000000	       -0.0564775454	        0.0000000000	        0.0000000000	        0.0000000000	        0.0000000000	        0.0000000000	        0.0000000000	
        0.7569704325	       -4.5362744082	        2.3070078480	       -0.3248104032	        0.0000000000	        0.0000000000	        0.0000000000	     -121.0344227241	      719.2007259767	       13.0011538670	        1.0847810707	        0.0000000000	       -0.0568142912	        0.0000000000	        0.0000000000	        0.0000000000	        0.0000000000	        0.0000000000	        0.0000000000	
        0.7695866063	       -4.0375125127	        1.9059023935	       -0.2886571749	        0.0000000000	        0.0000000000	        0.0000000000	     -105.4934515040	      686.7464557959	       13.6932351724	        1.0865998275	        0.0000000000	       -0.0571213610	        0.0000000000	        0.0000000000	        0.0000000000	        0.0000000000	        0.0000000000	        0.0000000000	
        0.7822027802	       -3.3628105624	        1.5152605242	       -0.2106416590	        0.0000000000	        0.0000000000	        0.0000000000	      -91.8467816765	      660.7942220590	       14.5134390256	        1.0888088453	        0.0000000000	       -0.0573283148	        0.0000000000	        0.0000000000	        0.0000000000	        0.0000000000	        0.0000000000	        0.0000000000	
        0.7948189541	       -2.7480543339	        1.1902824399	       -0.1505201293	        0.0000000000	        0.0000000000	        0.0000000000	      -82.1312083702	      640.4059378586	       15.3233168275	        1.0911923153	        0.0000000000	       -0.0574469789	        0.0000000000	        0.0000000000	        0.0000000000	        0.0000000000	        0.0000000000	        0.0000000000	
        0.8074351280	       -2.2367043005	        0.9395940751	       -0.1051234317	        0.0000000000	        0.0000000000	        0.0000000000	      -74.7096923025	      622.7545142815	       16.7948709844	        1.0935293482	        0.0000000000	       -0.0574870271	        0.0000000000	        0.0000000000	        0.0000000000	        0.0000000000	        0.0000000000	        0.0000000000	
        0.8200513018	       -1.8324620519	        0.7517380852	       -0.0724441167	        0.0000000000	        0.0000000000	        0.0000000000	      -68.3458300102	      606.1792978589	       18.0531287503	        1.0956604277	        0.0000000000	       -0.0575024037	        0.0000000000	        0.0000000000	        0.0000000000	        0.0000000000	        0.0000000000	        0.0000000000	
        0.8326674757	       -1.5555347866	        0.6268773192	       -0.0502619571	        0.0000000000	        0.0000000000	        0.0000000000	      -62.6117910833	      590.3339828499	       19.2079098976	        1.0974432991	        0.0000000000	       -0.0575141491	        0.0000000000	        0.0000000000	        0.0000000000	        0.0000000000	        0.0000000000	        0.0000000000	
        0.8452836496	       -1.4078310450	        0.5594391932	       -0.0365358953	        0.0000000000	        0.0000000000	        0.0000000000	      -57.2046680137	      575.4131371397	       20.4274465511	        1.0988662434	        0.0000000000	       -0.0575245855	        0.0000000000	        0.0000000000	        0.0000000000	        0.0000000000	        0.0000000000	        0.0000000000	
        0.8578998235	       -1.3607740387	        0.5344719123	       -0.0284949534	        0.0000000000	        0.0000000000	        0.0000000000	      -52.0803511941	      561.0793465849	       21.7488625672	        1.1000088945	        0.0000000000	       -0.0575262543	        0.0000000000	        0.0000000000	        0.0000000000	        0.0000000000	        0.0000000000	        0.0000000000	
        0.8705159973	       -1.3843141424	        0.5381701301	       -0.0244445924	        0.0000000000	        0.0000000000	        0.0000000000	      -47.0740289434	      547.2157207269	       22.9322943157	        1.1009150954	        0.0000000000	       -0.0575216279	        0.0000000000	        0.0000000000	        0.0000000000	        0.0000000000	        0.0000000000	        0.0000000000	
        0.8831321712	       -1.4479290112	        0.5577264310	       -0.0234709065	        0.0000000000	        0.0000000000	        0.0000000000	      -42.0985951418	      534.0855903632	       24.3448014077	        1.1015755171	        0.0000000000	       -0.0574985703	        0.0000000000	        0.0000000000	        0.0000000000	        0.0000000000	        0.0000000000	        0.0000000000	
        0.8957483451	       -1.5131052015	        0.5782007732	       -0.0244474337	        0.0000000000	        0.0000000000	        0.0000000000	      -37.0061898724	      521.6617682031	       25.5060047120	        1.1019672184	        0.0000000000	       -0.0574646083	        0.0000000000	        0.0000000000	        0.0000000000	        0.0000000000	        0.0000000000	        0.0000000000	
        0.9083645190	       -1.5566448589	        0.5909136714	       -0.0260537613	        0.0000000000	        0.0000000000	        0.0000000000	      -31.6778053377	      510.1520987434	       26.1212907826	        1.1020804499	        0.0000000000	       -0.0574175631	        0.0000000000	        0.0000000000	        0.0000000000	        0.0000000000	        0.0000000000	        0.0000000000	
        0.9209806928	       -1.5956810886	        0.6021677727	       -0.0277529507	        0.0000000000	        0.0000000000	        0.0000000000	      -25.9499303066	      499.9432744352	       26.2018075800	        1.1019228569	        0.0000000000	       -0.0573429141	        0.0000000000	        0.0000000000	        0.0000000000	        0.0000000000	        0.0000000000	        0.0000000000	
        0.9335968667	       -1.6739156938	        0.6281537637	       -0.0300292727	        0.0000000000	        0.0000000000	        0.0000000000	      -19.8124593012	      492.3688534587	       26.0668788652	        1.1015200981	        0.0000000000	       -0.0572174343	        0.0000000000	        0.0000000000	        0.0000000000	        0.0000000000	        0.0000000000	        0.0000000000	
        0.9462130406	       -1.7996946446	        0.6723059089	       -0.0324512245	        0.0000000000	        0.0000000000	        0.0000000000	      -13.2712398011	      488.6337380940	       25.5648152132	        1.1009040389	        0.0000000000	       -0.0570344127	        0.0000000000	        0.0000000000	        0.0000000000	        0.0000000000	        0.0000000000	        0.0000000000	
        0.9588292145	       -1.9594409656	        0.7299412358	       -0.0335991400	        0.0000000000	        0.0000000000	        0.0000000000	       -6.2126642459	      489.2042236921	       24.8087479188	        1.1001320296	        0.0000000000	       -0.0567738766	        0.0000000000	        0.0000000000	        0.0000000000	        0.0000000000	        0.0000000000	        0.0000000000	
